<svg xmlns="http://www.w3.org/2000/svg" fill="none" viewBox="0 0 98 58" height="58" width="98">
    <g clip-path="url(#clip0_5228_31333)">
    <path fill="#E60012" d="M21.8781 36.84L21.6581 39.84L21.4081 39.61C20.9223 39.1183 20.3133 38.7662 19.6449 38.5903C18.9764 38.4144 18.273 38.4212 17.6081 38.61L17.0581 38.73C16.3881 38.88 16.3681 38.88 16.3481 39.54C16.3481 40.69 16.2881 41.83 16.2681 42.98C16.2613 43.0732 16.2613 43.1668 16.2681 43.26H19.2681C19.5416 43.2879 19.8175 43.239 20.0647 43.1189C20.312 42.9988 20.5209 42.8122 20.6681 42.58C20.8078 42.4038 20.969 42.2459 21.1481 42.11V45.6C20.6781 45.45 20.2281 45.27 19.7581 45.16C18.7129 44.8903 17.6143 44.9075 16.5781 45.21C16.4381 45.21 16.2481 45.41 16.2481 45.51C16.2481 46.87 16.3381 48.23 16.3881 49.64C17.8248 49.779 19.2735 49.732 20.6981 49.5C20.9826 49.4082 21.241 49.2494 21.4515 49.0372C21.6621 48.8249 21.8187 48.5652 21.9081 48.28L22.5881 49.93C23.4041 45.5868 23.4718 41.136 22.7881 36.77C23.7181 36.77 24.5681 36.77 25.4181 36.77C27.1559 36.7972 28.8625 37.2359 30.3981 38.05C31.3676 38.5564 32.1866 39.3091 32.7729 40.2324C33.3592 41.1558 33.6921 42.2172 33.7381 43.31C33.7381 43.83 33.7381 44.31 33.7381 44.92L34.4181 44.98L34.2281 36.98C34.2281 36.98 34.2781 36.92 34.2981 36.92C36.0201 36.7869 37.7523 36.9321 39.4281 37.35C40.2216 37.516 40.9511 37.9054 41.5305 38.4724C42.1099 39.0394 42.515 39.7603 42.6981 40.55C42.9129 41.3278 42.8449 42.1566 42.5061 42.889C42.1674 43.6214 41.5799 44.2099 40.8481 44.55C40.3081 44.84 39.7181 45.03 39.0681 45.3C39.6381 45.94 40.1681 46.57 40.7481 47.15C41.3281 47.73 41.9481 48.23 42.5481 48.76L41.6881 48.88L41.6381 48.97L43.0081 49.88C43.2481 49.07 43.4781 48.34 43.6581 47.6C44.4781 44.3533 45.2881 41.1067 46.0881 37.86C46.1681 37.56 46.2881 37.42 46.6081 37.4C48.6081 37.28 50.6081 37.15 52.7081 37.1C52.2481 37.44 51.7881 37.81 51.3081 38.1C51.2543 38.1247 51.2064 38.1608 51.1678 38.2059C51.1293 38.2509 51.101 38.3037 51.0848 38.3608C51.0686 38.4178 51.065 38.4777 51.0742 38.5363C51.0834 38.5948 51.1052 38.6507 51.1381 38.7C52.6315 42.2267 54.1148 45.7667 55.5881 49.32C55.725 49.6843 55.9973 49.9816 56.3481 50.15C56.7181 50.33 57.0781 50.54 57.5281 50.78H51.5281V50.72L53.0281 49.86C52.9781 49.74 52.9381 49.61 52.8881 49.48C52.4281 48.24 51.9481 47.01 51.4981 45.78C51.3981 45.52 51.2881 45.42 50.9881 45.45L47.5781 45.76C47.4381 45.76 47.2281 45.9 47.1981 46.02C46.8181 47.4 46.4681 48.78 46.0981 50.2L47.5081 50.78H46.5781C44.5781 50.86 42.4681 50.93 40.4181 51.03C40.2952 51.0559 40.1669 51.0356 40.0581 50.9729C39.9492 50.9102 39.8673 50.8094 39.8281 50.69C39.0981 49.05 38.3381 47.42 37.5781 45.79C37.5181 45.66 37.3581 45.56 37.2481 45.45C37.176 45.5882 37.1254 45.7366 37.0981 45.89C37.0981 47.07 37.0981 48.24 37.0981 49.41C37.0743 49.5523 37.1 49.6984 37.171 49.824C37.242 49.9496 37.3539 50.047 37.4881 50.1C37.7281 50.22 37.9381 50.39 38.2781 50.61L33.3981 51.06C33.9276 49.1724 34.2626 47.2357 34.3981 45.28L34.0981 45.2L33.7981 45.14C33.7981 45.47 33.7081 45.78 33.6581 46.14C33.5024 47.0231 33.1188 47.8501 32.5452 48.5394C31.9717 49.2287 31.2281 49.7563 30.3881 50.07C28.649 50.8079 26.7773 51.1823 24.8881 51.17C22.0681 51.17 19.2381 51.17 16.4181 51.17C15.7281 51.17 15.0381 51.24 14.2481 51.28C15.7161 53.1231 17.4247 54.7611 19.3281 56.15C18.6781 56.21 18.1181 56.26 17.5581 56.29C16.4881 56.37 15.4181 56.45 14.3481 56.5C14.2616 56.5012 14.1759 56.4839 14.0966 56.4495C14.0173 56.415 13.9462 56.364 13.8881 56.3C11.6748 53.08 9.47146 49.85 7.27812 46.61C6.82497 45.9207 6.41743 45.2025 6.05812 44.46C5.86812 44.08 5.58812 44.23 5.35812 44.27C5.12812 44.31 5.13812 44.51 5.13812 44.64C5.07812 46.46 5.04811 48.29 4.98811 50.12C4.96978 50.262 4.99544 50.4061 5.0616 50.5331C5.12776 50.66 5.23125 50.7637 5.35812 50.83C5.66812 51.02 5.92812 51.27 6.35812 51.56L0.988113 52.15C1.16811 51.23 1.36812 50.37 1.49812 49.5C1.74812 47.83 1.93812 46.14 2.17812 44.5C2.17812 44.12 2.07811 44 1.73811 43.92C1.16537 43.7784 0.609023 43.5773 0.078125 43.32L2.23811 43.64C2.23811 39.56 1.84813 35.56 1.54813 31.5C1.83813 31.62 2.08811 31.75 2.34811 31.84L6.21812 33.12C7.48021 33.5101 8.66221 34.1231 9.70811 34.93C12.1181 36.81 12.5181 42.02 8.27812 43.63C7.99812 43.73 7.72811 43.85 7.34811 44.01L13.4681 49.37C13.4681 49.02 13.5381 48.81 13.5381 48.6C13.5381 45.51 13.6081 42.42 13.6681 39.34C13.6911 39.0002 13.6268 38.6602 13.4816 38.3522C13.3363 38.0442 13.1149 37.7785 12.8381 37.58C12.5481 37.36 12.2781 37.12 11.9581 36.85L21.8781 36.84ZM25.7281 39.26C26.2533 42.4821 26.2533 45.7679 25.7281 48.99C28.2581 49.41 31.4081 47.1 31.2581 44.99L29.1581 45.83C29.1829 45.6729 29.2409 45.523 29.3281 45.39C29.884 44.513 30.1596 43.4875 30.1181 42.45C29.9981 40.7 29.3281 39.83 27.7381 39.58L25.7281 39.26ZM5.13812 43.48C5.81197 43.4472 6.45627 43.1934 6.97142 42.7578C7.48657 42.3222 7.84387 41.729 7.98811 41.07C8.22608 40.0392 8.24991 38.9704 8.05812 37.93C7.96815 37.1485 7.65579 36.4092 7.15813 35.8C6.85832 35.4753 6.48917 35.2224 6.07812 35.06C5.60813 34.88 5.38812 35.06 5.36812 35.61C5.28812 37.49 5.20812 39.37 5.13812 41.25C5.11812 41.98 5.13812 42.72 5.13812 43.48ZM37.0381 43.69C38.1624 43.5414 39.1827 42.9558 39.8781 42.06C40.0383 41.8395 40.1481 41.5864 40.1997 41.3188C40.2512 41.0511 40.2434 40.7754 40.1766 40.5111C40.1098 40.2468 39.9857 40.0005 39.8132 39.7895C39.6407 39.5785 39.4239 39.4079 39.1781 39.29C38.6247 39.0828 38.0518 38.932 37.4681 38.84C37.1181 38.77 36.9481 38.91 36.9681 39.31C36.9681 40.38 36.9681 41.46 37.0381 42.53V43.69ZM49.0381 39.34H48.9281L47.7381 43.97H50.7381L49.0381 39.34Z"></path>
    <path fill="#E60012" d="M90.5983 31.5901H97.8183V31.6501C97.4621 31.8688 97.0912 32.0626 96.7083 32.2301C96.584 32.263 96.4759 32.34 96.4041 32.4467C96.3324 32.5534 96.3019 32.6826 96.3183 32.8101C96.3183 35.4601 96.2283 38.1101 96.2183 40.8101C96.1783 46.0768 96.1516 51.3535 96.1383 56.6401V57.4401H95.9783L85.7783 38.6101H85.6583C85.6583 38.7501 85.6583 38.8901 85.6583 39.0201C85.7783 42.5901 85.8983 46.1501 85.9983 49.7201C85.9983 50.3501 86.1983 50.7201 86.8583 50.8801C87.2804 51.0008 87.6945 51.1477 88.0983 51.3201H80.2383V51.2301C80.6483 51.0401 81.0583 50.8601 81.4483 50.6401C81.6196 50.5373 81.7448 50.3726 81.7983 50.1801C81.8983 49.1801 81.9883 48.2401 82.0083 47.2701C82.1283 43.5001 82.2083 39.7401 82.3083 35.9701V35.7101L80.3083 35.0201V34.9501H80.6683L86.9783 34.8901C87.0754 34.8862 87.1712 34.9131 87.252 34.967C87.3329 35.0209 87.3946 35.099 87.4283 35.1901C88.7583 37.5001 90.0783 39.8101 91.4283 42.1201C91.7617 42.7206 92.1536 43.2867 92.5983 43.8101C92.5983 43.6701 92.5983 43.5301 92.5983 43.4001C92.5983 40.4001 92.5983 37.4801 92.5983 34.5301C92.5983 33.9201 92.4883 33.3101 92.4483 32.7101C92.4503 32.5943 92.4112 32.4816 92.3379 32.3919C92.2647 32.3022 92.1621 32.2413 92.0483 32.2201C91.5383 32.0501 91.0483 31.8401 90.5283 31.6401L90.5983 31.5901Z"></path>
    <path fill="#E60012" d="M53.0711 23.12C53.6565 24.6565 53.7543 26.336 53.3511 27.93L53.4911 28.06C53.5557 27.9169 53.6327 27.7797 53.7211 27.65C55.3292 25.7235 56.1125 23.2405 55.9011 20.74C55.7971 19.1748 55.4356 17.6375 54.8311 16.19C54.8311 16.08 54.7611 15.98 54.7111 15.85C55.8476 16.6047 56.7953 17.6106 57.4811 18.79C58.1627 19.9515 58.6555 21.2139 58.9411 22.53C58.9453 22.4534 58.9453 22.3766 58.9411 22.3C59.0861 17.7433 58.5365 13.1912 57.3111 8.79999C56.4715 5.60744 54.9308 2.64221 52.8011 0.119995C52.8011 0.119995 52.8011 0.06 52.8011 0C54.1744 0.222471 55.5169 0.605094 56.8011 1.14001C59.8308 2.33468 62.5857 4.13344 64.8979 6.42682C67.2102 8.7202 69.0316 11.4602 70.2511 14.48C71.5847 17.6697 72.4373 21.0398 72.7811 24.48C73.0361 26.8308 73.1263 29.1966 73.0511 31.56C71.6711 27.18 69.8811 23.09 65.5511 20.56C66.0411 24.45 66.0911 28.19 64.6511 31.73C64.4611 30.42 64.3311 29.06 64.0711 27.73C63.8031 26.3371 63.1835 25.036 62.2711 23.95C61.9011 27.56 60.4211 30.38 57.0311 32.08C58.1411 30.29 58.4711 29.43 58.4411 28.35C54.4411 31.35 49.7411 32.09 44.8711 32.11C48.8811 30.29 51.9011 27.61 53.0711 23.12Z"></path>
    <path fill="#E60012" d="M47.2614 0.219971C46.5511 3.06711 45.5699 5.83977 44.3314 8.5C47.7114 6.81 50.0314 4 52.1714 1C51.0366 4.91351 48.6075 8.32619 45.2814 10.68C47.2391 10.5816 49.1855 10.3241 51.1014 9.90997C50.2598 10.6192 49.2933 11.1652 48.2514 11.52C46.6914 12.0227 45.0824 12.3579 43.4514 12.52C42.3314 12.68 41.2114 12.84 40.1114 13.09C39.2931 13.1638 38.5366 13.5565 38.0052 14.1833C37.4739 14.81 37.2103 15.6206 37.2714 16.44C37.256 17.2099 37.3095 17.9796 37.4314 18.74C38.0934 18.0178 38.9463 17.4978 39.8914 17.24C39.3175 17.7397 38.8539 18.3534 38.5303 19.0421C38.2066 19.7307 38.0299 20.4793 38.0114 21.24C37.9314 21.86 38.0114 22.49 37.9214 23.11C37.9214 23.6404 37.7107 24.1492 37.3356 24.5242C36.9605 24.8993 36.4518 25.11 35.9214 25.11C35.4679 25.1618 35.0085 25.1144 34.5751 24.9711C34.1417 24.8278 33.7447 24.5919 33.4114 24.28L31.9614 23.04L32.1214 22.85C32.392 23.011 32.6725 23.1547 32.9614 23.28C33.5014 23.49 34.0514 23.67 34.6014 23.83C34.8099 23.8941 35.0329 23.8941 35.2414 23.83C35.5473 23.722 35.8197 23.5358 36.0314 23.29C36.1014 23.19 35.8914 22.83 35.7414 22.64C35.5772 22.4535 35.3927 22.2858 35.1914 22.14L36.0014 22.05C36.3114 22.05 36.4814 21.86 36.4014 21.53C36.3027 20.8019 36.1112 20.0894 35.8314 19.41C35.0153 17.7623 34.6693 15.9215 34.8314 14.09C34.8314 13.94 34.8314 13.78 34.8314 13.6C34.6577 13.5314 34.4649 13.5292 34.2896 13.5938C34.1144 13.6583 33.9691 13.7852 33.8814 13.95C33.5514 14.64 33.2614 15.34 32.9514 16.05L32.5914 15.33C32.1114 15.51 31.6514 15.66 31.2014 15.85C31.0737 15.9033 30.9679 15.9986 30.9014 16.12C30.6914 16.53 30.5114 16.96 30.3014 17.42C30.1314 17.04 29.9514 16.67 29.8014 16.29C29.792 16.2458 29.7738 16.2039 29.748 16.1668C29.7221 16.1297 29.6892 16.0981 29.651 16.0739C29.6128 16.0497 29.5702 16.0334 29.5256 16.0258C29.481 16.0183 29.4354 16.0197 29.3914 16.03C28.3314 16.13 28.0914 16.32 28.1414 17.38C28.2184 18.2526 28.342 19.1205 28.5114 19.98C27.8989 19.6393 27.4091 19.1145 27.1114 18.48C26.1914 16.41 25.3214 14.33 24.4414 12.25C24.4414 12.25 24.4414 12.17 24.4414 12.12C27.5714 12.34 29.9314 10.73 32.1114 8.79999C33.0525 7.9171 33.9471 6.98586 34.7914 6.01001C34.864 5.90866 34.9705 5.83674 35.0917 5.80737C35.2128 5.77801 35.3405 5.79311 35.4514 5.84998C36.4514 6.16998 37.4514 6.44999 38.4514 6.73999C38.7174 6.82926 39.0053 6.82868 39.2709 6.73834C39.5365 6.648 39.765 6.47291 39.9214 6.23999C40.5614 5.33999 41.1514 4.38996 41.7614 3.45996C41.8333 3.31621 41.9317 3.18735 42.0514 3.08002L41.1514 7.29999C41.5121 7.29209 41.8675 7.21091 42.1958 7.06134C42.5242 6.91178 42.8187 6.69697 43.0614 6.42999C43.8853 5.44142 44.6564 4.40996 45.3714 3.33997C46.0714 2.36997 46.6414 1.27997 47.2614 0.219971ZM32.0014 11.45C32.8514 11.34 33.6214 11.22 34.4014 11.13C34.5009 11.1305 34.597 11.0939 34.671 11.0273C34.745 10.9607 34.7915 10.869 34.8014 10.77C34.9514 10.18 35.1314 9.60001 35.2814 9.01001C35.3614 8.71001 35.4114 8.39997 35.4714 8.08997L32.0014 11.45Z"></path>
    <path fill="#E60012" d="M38.4516 16.6101C38.413 16.2488 38.4736 15.8838 38.6269 15.5543C38.7802 15.2249 39.0204 14.9434 39.3216 14.7401C40.2049 14.1173 41.243 13.7505 42.3216 13.6801C43.8744 13.4282 45.4667 13.6117 46.9216 14.2101C47.9673 14.6591 48.8714 15.3838 49.5371 16.3067C50.2029 17.2297 50.6054 18.3162 50.7016 19.4502C50.7916 20.1702 50.8716 20.8902 50.9716 21.7002L49.9216 20.5601C50.1379 22.5413 49.831 24.5446 49.0316 26.3701C49.0899 25.4778 48.9392 24.5841 48.5916 23.7601C48.2644 25.7577 47.3924 27.6263 46.0716 29.1601L46.6016 26.9001C45.6816 27.3551 44.9657 28.1387 44.5954 29.0959C44.2251 30.0531 44.2273 31.1145 44.6016 32.0701H32.6016C32.8452 30.0387 33.858 28.1778 35.4316 26.8701C36.8563 25.701 38.4385 24.7382 40.1316 24.0101C41.5901 23.3971 42.9098 22.4957 44.0116 21.3601C44.7762 20.6134 45.266 19.6303 45.4016 18.5701C45.4773 18.0388 45.3813 17.4971 45.1277 17.024C44.8741 16.5509 44.476 16.1712 43.9916 15.9401C42.8971 15.3591 41.6538 15.1188 40.4216 15.2501C39.9979 15.2661 39.5875 15.4025 39.2386 15.6434C38.8897 15.8843 38.6167 16.2196 38.4516 16.6101Z"></path>
    <path fill="#E60012" d="M79.9819 44.8501L81.2219 43.0901C81.0769 44.2035 80.7385 45.2831 80.2219 46.2801C79.8119 47.1201 79.3919 47.9601 78.9419 48.7901C78.5659 49.5656 77.9724 50.2149 77.2337 50.6588C76.495 51.1027 75.6431 51.3221 74.7819 51.2901C74.1141 51.2967 73.4464 51.2667 72.7819 51.2001C72.071 51.1332 71.391 50.8771 70.8124 50.4586C70.2339 50.0401 69.7779 49.4743 69.4919 48.8201C69.1412 47.948 68.8407 47.0565 68.5919 46.1501C68.5919 46.0201 68.5219 45.8801 68.4619 45.6601L67.4619 47.1401C67.4619 46.8801 67.3919 46.7201 67.3819 46.5601C67.185 43.9012 67.9517 41.2602 69.5419 39.1201C70.0939 38.3614 70.8554 37.7803 71.7329 37.4481C72.6104 37.116 73.5658 37.0471 74.4819 37.2501C75.5322 37.3876 76.5223 37.8192 77.3379 38.4951C78.1536 39.171 78.7616 40.0636 79.0919 41.0701C79.5048 42.155 79.7378 43.3 79.7819 44.4601V44.8001L79.9819 44.8501ZM70.2019 44.1501C70.2092 45.3636 70.5782 46.5474 71.2619 47.5501C71.5993 47.9948 72.0363 48.3542 72.5378 48.5995C73.0393 48.8447 73.5913 48.9689 74.1495 48.9621C74.7077 48.9553 75.2566 48.8176 75.7519 48.5603C76.2473 48.3029 76.6754 47.9329 77.0019 47.4801C77.607 46.4106 77.8692 45.1811 77.7529 43.9579C77.6367 42.7346 77.1476 41.5765 76.3519 40.6401C75.9748 40.2581 75.5167 39.9657 75.0113 39.7847C74.506 39.6037 73.9664 39.5386 73.4325 39.5943C72.8987 39.65 72.3841 39.825 71.9271 40.1064C71.47 40.3878 71.082 40.7684 70.7919 41.2201C70.3177 42.1197 70.1128 43.137 70.2019 44.1501Z"></path>
    <path fill="#E60012" d="M67.4386 38.1101L66.4386 41.2101C65.8286 40.7801 65.1786 40.2701 64.4386 39.8601C63.3419 39.2054 62.04 38.9842 60.7886 39.2401C60.2323 39.3216 59.705 39.5402 59.2542 39.8762C58.8034 40.2122 58.4432 40.6551 58.2062 41.165C57.9691 41.6748 57.8626 42.2356 57.8962 42.7968C57.9298 43.3581 58.1024 43.9022 58.3986 44.3801C58.6823 44.8445 58.9929 45.2919 59.3286 45.7201C58.7602 45.6699 58.2249 45.4304 57.8086 45.0401C57.8282 45.7012 57.9996 46.3491 58.3097 46.9333C58.6198 47.5176 59.0601 48.0227 59.5968 48.4094C60.1334 48.7961 60.7518 49.0542 61.4041 49.1635C62.0565 49.2729 62.7252 49.2307 63.3586 49.0401C63.7486 48.9501 64.1286 48.7901 64.5186 48.6701C64.6344 48.6459 64.7369 48.5789 64.8054 48.4825C64.874 48.3861 64.9037 48.2674 64.8886 48.1501C64.8885 47.5855 64.8584 47.0214 64.7986 46.4601C64.7657 46.3472 64.7083 46.243 64.6305 46.1549C64.5528 46.0667 64.4565 45.9968 64.3486 45.9501C63.4086 45.5201 62.4386 45.1301 61.4786 44.7201L61.0986 44.5801L66.5986 44.3901C66.8286 46.5401 67.0586 48.6501 67.2886 50.8001H66.3686C64.6686 50.8001 62.9786 50.9401 61.2786 50.9101C60.1462 50.98 59.0201 50.6962 58.0562 50.0978C57.0923 49.4993 56.3383 48.616 55.8986 47.5701C55.6108 46.8767 55.406 46.1516 55.2886 45.4101C54.9962 43.9987 55.1512 42.5313 55.7319 41.2121C56.3126 39.8929 57.2903 38.7876 58.5286 38.0501C59.8688 37.2018 61.4722 36.8712 63.0386 37.1201C64.5386 37.3601 66.0186 37.7801 67.4386 38.1101Z"></path>
    <path fill="#E60012" d="M75.3191 43.8499C74.0491 44.7099 74.0991 46.11 73.8391 47.39C73.6991 46.06 73.5491 44.7399 72.2891 43.8699C73.1731 43.1385 73.7365 42.0908 73.8591 40.95C74.0278 42.0464 74.5388 43.0614 75.3191 43.8499Z"></path>
    </g>
    <defs>
    <clipPath id="clip0_5228_31333">
    <rect fill="white" height="57.44" width="97.87"></rect>
    </clipPath>
    </defs>
    </svg>
    